<?xml version="1.0" encoding="UTF-8"?>
<!DOCTYPE svg PUBLIC "-//W3C//DTD SVG 1.1//EN" "http://www.w3.org/Graphics/SVG/1.1/DTD/svg11.dtd">
<!-- Creator: CorelDRAW X7 -->
<svg xmlns="http://www.w3.org/2000/svg" xml:space="preserve" width="56.473mm" height="7.0189mm" version="1.1" style="shape-rendering:geometricPrecision; text-rendering:geometricPrecision; image-rendering:optimizeQuality; fill-rule:evenodd; clip-rule:evenodd"
viewBox="0 0 204199 25379"
 xmlns:xlink="http://www.w3.org/1999/xlink">
 <defs>
  <style type="text/css">
   <![CDATA[
    .fil0 {fill:#FEFEFE;fill-rule:nonzero}
   ]]>
  </style>
 </defs>
 <g id="Слой_x0020_1">
  <metadata id="CorelCorpID_0Corel-Layer"/>
  <path class="fil0" d="M13746 20879l3582 0 -1255 -20634 -4225 0 -1653 7470c-521,2602 -980,4929 -1286,7225l-92 0c-367,-2327 -888,-4623 -1439,-7225l-1653 -7470 -4256 0 -1469 20634 3429 0 367 -7164c92,-2051 245,-4653 306,-6888l62 0c336,2235 887,4807 1285,6460l1715 7255 2816 0 1807 -7378c397,-1592 948,-4133 1316,-6337l61 0c-30,2204 92,4868 214,6827l368 7225zm6521 -20634l0 20634 4010 0 0 -20634 -4010 0zm7592 0l0 20634 4011 0 0 -8633 4194 0 0 8633 4010 0 0 -20634 -4010 0 0 8266 -4194 0 0 -8266 -4011 0zm24461 8235l-4684 0 0 -4745 4960 0 0 -3490 -8970 0 0 20634 9306 0 0 -3490 -5296 0 0 -5572 4684 0 0 -3337zm3368 12399l4010 0 0 -7684c276,30 521,30 796,30 1684,0 3735,-612 5021,-1989 1071,-1133 1745,-2725 1745,-4960 0,-1745 -551,-3460 -1776,-4531 -1316,-1255 -3214,-1592 -5602,-1592 -1531,0 -3062,153 -4194,398l0 20328zm4010 -17328c245,-92 612,-153 980,-153 1867,0 2602,1409 2602,3215 0,1928 -888,3368 -2908,3368 -245,0 -459,0 -674,-31l0 -6399zm15614 12613l887 4715 3888 0 -4010 -20634 -4807 0 -4469 20634 3888 0 918 -4715 3705 0zm-3307 -3122l765 -4317c215,-1194 521,-3306 735,-4684l92 0c184,1347 459,3429 674,4684l673 4317 -2939 0zm11664 -12797l0 9307c0,4010 -245,6306 -1469,7562 -368,336 -888,581 -1378,704l857 3398c1041,0 2021,-398 2786,-1011 2602,-2020 2909,-6275 2909,-11021l0 -5449 3031 0 0 17144 4010 0 0 -20634 -10746 0zm14297 0l0 20542c919,153 2205,245 3735,245 2939,0 5174,-765 6582,-2235 1072,-1102 1715,-2602 1715,-4653 0,-3919 -2511,-6307 -6429,-6307 -827,0 -1286,61 -1623,123l0 -7715 -3980 0zm4011 10929c245,-61 582,-91 918,-91 1929,0 2939,1438 2939,3306 0,1867 -1041,3429 -3092,3429 -245,0 -490,0 -765,-62l0 -6582zm10531 -10929l0 20634 4011 0 0 -8633 4194 0 0 8633 4010 0 0 -20634 -4010 0 0 8266 -4194 0 0 -8266 -4011 0zm22747 15919l888 4715 3888 0 -4011 -20634 -4806 0 -4470 20634 3888 0 919 -4715 3704 0zm-3306 -3122l765 -4317c214,-1194 520,-3306 735,-4684l91 0c184,1347 460,3429 674,4684l674 4317 -2939 0zm15215 7745c918,153 2204,245 3735,245 3459,0 5541,-735 6765,-2082 980,-1010 1531,-2357 1531,-4041 0,-2296 -1255,-4255 -3643,-4928l0 -123c2020,-888 2970,-2664 2970,-4500 0,-1439 -460,-2817 -1562,-3736 -1438,-1224 -3306,-1469 -5235,-1469 -1714,0 -3337,123 -4561,398l0 20236zm4010 -17511c245,-92 612,-123 1072,-123 1622,0 2326,1164 2326,2664 0,1684 -1102,2908 -2540,2908l-858 0 0 -5449zm0 8419l858 0c1591,0 3000,1071 3000,3153 0,2082 -1317,3092 -2970,3092 -337,0 -643,0 -888,-61l0 -6184zm16409 -11695c-4592,0 -6826,4868 -6826,10501 0,5663 1836,10623 6520,10623 3919,0 6674,-3153 6674,-10929 0,-4715 -1408,-10195 -6368,-10195zm-183 3490c1837,0 2388,3276 2388,6888 0,4195 -643,7256 -2358,7256 -1622,0 -2510,-2388 -2510,-7072 0,-4439 888,-7072 2480,-7072zm10348 -3245l0 5204c0,2419 -184,4837 -582,7195 -322,1684 -750,3245 -1393,4806l-1439 62 153 7867 3031 0 153 -4500 8924 0 184 4500 3031 0 183 -7867 -1622 -62 0 -17205 -10623 0zm3673 3490l2939 0 0 13654 -4469 0c428,-1255 796,-2816 1010,-4317 337,-2204 520,-4592 520,-6949l0 -2388zm18002 12429l888 4715 3888 0 -4011 -20634 -4806 0 -4470 20634 3888 0 918 -4715 3705 0zm-3306 -3122l765 -4317c214,-1194 520,-3306 734,-4684l92 0c184,1347 459,3429 674,4684l673 4317 -2938 0z"/>
 </g>
</svg>
