<?xml version="1.0" encoding="UTF-8"?>
<!DOCTYPE svg PUBLIC "-//W3C//DTD SVG 1.1//EN" "http://www.w3.org/Graphics/SVG/1.1/DTD/svg11.dtd">
<!-- Creator: CorelDRAW X7 -->
<svg xmlns="http://www.w3.org/2000/svg" xml:space="preserve" width="42.4351mm" height="5.8844mm" version="1.1" style="shape-rendering:geometricPrecision; text-rendering:geometricPrecision; image-rendering:optimizeQuality; fill-rule:evenodd; clip-rule:evenodd"
viewBox="0 0 126874 17593"
 xmlns:xlink="http://www.w3.org/1999/xlink">
 <defs>
  <style type="text/css">
   <![CDATA[
    .fil0 {fill:#FEFEFE;fill-rule:nonzero}
   ]]>
  </style>
 </defs>
 <g id="Слой_x0020_1">
  <metadata id="CorelCorpID_0Corel-Layer"/>
  <path class="fil0" d="M0 202l0 16986c759,127 1823,203 3088,203 2430,0 4278,-608 5443,-1823 886,-911 1417,-2227 1417,-3873 0,-1721 -633,-3038 -1645,-3924 -912,-835 -2228,-1291 -3671,-1291 -481,0 -860,51 -1341,127l0 -3569 5391 0 0 -2836 -8682 0zm3316 9038c228,-51 481,-76 759,-76 734,0 1342,329 1773,810 430,506 658,1189 658,1974 0,760 -228,1469 -633,1975 -431,506 -1038,810 -1823,810 -278,0 -506,0 -734,-76l0 -5417zm6506 -9038l3974 11873c127,379 152,658 25,1012 -253,836 -961,1722 -1822,1722 -405,0 -658,-51 -810,-76l-127 2708c329,102 759,152 1342,152 1417,0 2658,-886 3468,-2227 861,-1443 1519,-3797 2101,-5949l2531 -9215 -3367 0 -1139 6481c-152,962 -278,2000 -405,2810l-75 0c-127,-760 -330,-1772 -558,-2734l-1569 -6557 -3569 0zm11771 0l0 17062 3240 0 0 -7240 253 0c1342,0 1797,1291 2228,3291 278,1317 506,2734 936,3949l3291 0c-481,-1569 -785,-3189 -1139,-4860 -481,-2076 -1063,-3645 -2810,-4329l3898 -7873 -3645 0 -2759 7418 -253 0 0 -7418 -3240 0zm16049 -202c-3797,0 -5645,4025 -5645,8683 0,4683 1519,8784 5392,8784 3240,0 5518,-2608 5518,-9037 0,-3899 -1165,-8430 -5265,-8430zm-152 2886c1519,0 1974,2709 1974,5695 0,3469 -531,6000 -1949,6000 -1341,0 -2076,-1975 -2076,-5848 0,-3670 735,-5847 2051,-5847zm7518 14302c760,127 1823,203 3088,203 2861,0 4582,-608 5595,-1722 810,-835 1266,-1949 1266,-3341 0,-1899 -1038,-3519 -3013,-4075l0 -102c1671,-734 2456,-2202 2456,-3721 0,-1190 -380,-2329 -1291,-3088 -1190,-1013 -2734,-1216 -4329,-1216 -1418,0 -2759,102 -3772,330l0 16732zm3316 -14480c203,-75 506,-101 886,-101 1342,0 1924,962 1924,2203 0,1392 -911,2404 -2101,2404l-709 0 0 -4506zm0 6962l709 0c1316,0 2481,886 2481,2607 0,1722 -1089,2557 -2456,2557 -278,0 -531,0 -734,-50l0 -5114zm8911 -9468l0 17062 3063 0 2506 -6505c557,-1443 1316,-3494 1721,-5013l51 0c-102,1722 -228,4253 -228,7671l0 3847 2911 0 0 -17062 -3012 0 -2506 6608c-507,1291 -1367,3543 -1848,5012l-51 0c127,-1772 329,-4709 329,-7848l0 -3772 -2936 0zm12986 0l0 17062 3316 0 0 -7138 3468 0 0 7138 3316 0 0 -17062 -3316 0 0 6835 -3468 0 0 -6835 -3316 0zm20884 14024c-405,127 -1038,254 -1595,254 -2025,0 -3569,-1595 -3569,-5671 0,-4227 1696,-5847 3569,-5847 734,0 1165,152 1544,329l557 -2785c-329,-228 -1139,-455 -2303,-455 -3316,0 -6886,2506 -6886,8936 0,4860 2076,8429 6455,8429 1140,0 2076,-177 2557,-405l-329 -2785zm2152 -14024l0 16986c759,127 1822,203 3088,203 2430,0 4278,-633 5442,-1848 886,-911 1418,-2152 1418,-3848 0,-3240 -2076,-5215 -5316,-5215 -683,0 -1063,51 -1342,102l0 -6380 -3290 0zm3316 9038c202,-51 481,-76 759,-76 1595,0 2430,1189 2430,2734 0,1544 -861,2835 -2556,2835 -203,0 -406,0 -633,-51l0 -5442zm8708 -9038l0 17062 3240 0 0 -7240 253 0c1342,0 1797,1291 2228,3291 278,1317 506,2734 936,3949l3291 0c-481,-1569 -785,-3189 -1139,-4860 -481,-2076 -1063,-3645 -2810,-4329l3898 -7873 -3645 0 -2759 7418 -253 0 0 -7418 -3240 0zm17644 13164l734 3898 3215 0 -3317 -17062 -3974 0 -3696 17062 3215 0 760 -3898 3063 0zm-2734 -2582l632 -3570c178,-987 431,-2733 608,-3873l76 0c152,1114 380,2836 557,3873l557 3570 -2430 0z"/>
 </g>
</svg>
