<?xml version="1.0" encoding="UTF-8"?>
<!DOCTYPE svg PUBLIC "-//W3C//DTD SVG 1.1//EN" "http://www.w3.org/Graphics/SVG/1.1/DTD/svg11.dtd">
<!-- Creator: CorelDRAW X7 -->
<svg xmlns="http://www.w3.org/2000/svg" xml:space="preserve" width="32.453mm" height="7.0189mm" version="1.1" style="shape-rendering:geometricPrecision; text-rendering:geometricPrecision; image-rendering:optimizeQuality; fill-rule:evenodd; clip-rule:evenodd"
viewBox="0 0 543670 117584"
 xmlns:xlink="http://www.w3.org/1999/xlink">
 <defs>
  <style type="text/css">
   <![CDATA[
    .fil0 {fill:#FEFEFE;fill-rule:nonzero}
   ]]>
  </style>
 </defs>
 <g id="Слой_x0020_1">
  <metadata id="CorelCorpID_0Corel-Layer"/>
  <polygon class="fil0" points="0,1134 0,96734 18580,96734 18580,17304 37586,17304 37586,96734 56168,96734 56168,1134 "/>
  <path id="1" class="fil0" d="M72622 96734l18580 0 0 -35601c1277,141 2411,141 3688,141 7801,0 17305,-2836 23262,-9219 4964,-5248 8085,-12623 8085,-22978 0,-8084 -2553,-16028 -8227,-20992 -6100,-5815 -14893,-7376 -25957,-7376 -7091,0 -14184,710 -19431,1844l0 94181zm18580 -80281c1135,-426 2837,-709 4539,-709 8652,0 12057,6525 12057,14893 0,8936 -4113,15603 -13475,15603 -1135,0 -2127,0 -3121,-142l0 -29645z"/>
  <path id="2" class="fil0" d="M137443 1134l0 95600 17161 0 14042 -36452c3121,-8084 7376,-19573 9646,-28084l283 0c-568,9645 -1276,23829 -1276,42977l0 21559 16312 0 0 -95600 -16880 0 -14042 37022c-2836,7233 -7659,19856 -10353,28084l-285 0c710,-9930 1844,-26382 1844,-43971l0 -21135 -16452 0z"/>
  <path id="3" class="fil0" d="M210206 96734l18580 0 0 -35601c1276,141 2411,141 3687,141 7802,0 17306,-2836 23263,-9219 4964,-5248 8085,-12623 8085,-22978 0,-8084 -2554,-16028 -8228,-20992 -6099,-5815 -14893,-7376 -25956,-7376 -7091,0 -14184,710 -19431,1844l0 94181zm18580 -80281c1134,-426 2836,-709 4538,-709 8653,0 12057,6525 12057,14893 0,8936 -4113,15603 -13474,15603 -1136,0 -2128,0 -3121,-142l0 -29645z"/>
  <path id="4" class="fil0" d="M301974 0c-21275,0 -31628,22552 -31628,48651 0,26240 8510,49217 30211,49217 18155,0 30920,-14608 30920,-50636 0,-21844 -6525,-47232 -29503,-47232zm-851 16170c8511,0 11064,15177 11064,31913 0,19433 -2979,33616 -10921,33616 -7517,0 -11632,-11064 -11632,-32765 0,-20565 4115,-32764 11489,-32764z"/>
  <path id="5" class="fil0" d="M349066 1134l0 24114c0,11206 -851,22410 -2696,33332 -1489,7800 -3474,15034 -6453,22268l-6666 284 709 36452 14042 0 709 -20850 41347 0 851 20850 14042 0 851 -36452 -7519 -284 0 -79714 -49217 0zm17020 16170l13617 0 0 63261 -20708 0c1985,-5815 3687,-13049 4681,-20000 1559,-10212 2410,-21275 2410,-32196l0 -11065z"/>
  <polygon id="6" class="fil0" points="416156,1134 416156,96734 434737,96734 434737,56736 454168,56736 454168,96734 472750,96734 472750,1134 454168,1134 454168,39432 434737,39432 434737,1134 "/>
  <path id="7" class="fil0" d="M521543 74891l4113 21843 18014 0 -18582 -95600 -22268 0 -20709 95600 18014 0 4255 -21843 17163 0zm-15318 -14468l3544 -19999c994,-5532 2413,-15319 3405,-21701l425 0c851,6240 2128,15886 3121,21701l3121 19999 -13616 0z"/>
 </g>
</svg>
