<?xml version="1.0" encoding="UTF-8"?>
<!DOCTYPE svg PUBLIC "-//W3C//DTD SVG 1.1//EN" "http://www.w3.org/Graphics/SVG/1.1/DTD/svg11.dtd">
<!-- Creator: CorelDRAW X7 -->
<svg xmlns="http://www.w3.org/2000/svg" xml:space="preserve" width="38.7268mm" height="5.8251mm" version="1.1" style="shape-rendering:geometricPrecision; text-rendering:geometricPrecision; image-rendering:optimizeQuality; fill-rule:evenodd; clip-rule:evenodd"
viewBox="0 0 580014 87243"
 xmlns:xlink="http://www.w3.org/1999/xlink">
 <defs>
  <style type="text/css">
   <![CDATA[
    .fil0 {fill:#FEFEFE;fill-rule:nonzero}
   ]]>
  </style>
 </defs>
 <g id="Слой_x0020_1">
  <metadata id="CorelCorpID_0Corel-Layer"/>
  <path class="fil0" d="M56935 85849l14838 0 -5200 -85469 -17499 0 -6848 30942c-2155,10779 -4057,20416 -5326,29927l-380 0c-1522,-9638 -3677,-19148 -5959,-29927l-6848 -30942 -17626 0 -6087 85469 14203 0 1521 -29673c381,-8497 1014,-19274 1267,-28531l255 0c1394,9257 3677,19909 5326,26756l7101 30053 11665 0 7483 -30561c1647,-6594 3930,-17118 5451,-26248l255 0c-127,9130 380,20162 887,28278l1521 29926z"/>
  <polygon id="1" class="fil0" points="83946,380 83946,85849 100558,85849 100558,380 "/>
  <polygon id="2" class="fil0" points="115394,380 115394,85849 132005,85849 132005,50089 149377,50089 149377,85849 165989,85849 165989,380 149377,380 149377,34619 132005,34619 132005,380 "/>
  <polygon id="3" class="fil0" points="216712,34492 197311,34492 197311,14836 217853,14836 217853,380 180700,380 180700,85849 219248,85849 219248,71393 197311,71393 197311,48315 216712,48315 "/>
  <path id="4" class="fil0" d="M230662 85849l16611 0 0 -31828c1141,126 2155,126 3296,126 6975,0 15472,-2536 20797,-8242 4438,-4693 7228,-11286 7228,-20543 0,-7228 -2282,-14330 -7355,-18768 -5453,-5198 -13314,-6594 -23205,-6594 -6340,0 -12681,635 -17372,1649l0 84200zm16611 -71774c1014,-380 2535,-633 4057,-633 7736,0 10779,5833 10779,13315 0,7988 -3677,13949 -12046,13949 -1015,0 -1902,0 -2790,-127l0 -26504z"/>
  <path id="5" class="fil0" d="M311944 66320l3677 19529 16105 0 -16613 -85469 -19908 0 -18514 85469 16105 0 3804 -19529 15344 0zm-13695 -12934l3169 -17880c888,-4945 2157,-13695 3043,-19401l381 0c761,5579 1902,14203 2790,19401l2790 17880 -12173 0z"/>
  <path id="6" class="fil0" d="M346562 380l0 38550c0,16612 -1014,26123 -6087,31321 -1522,1395 -3677,2410 -5706,2916l3551 14076c4310,0 8369,-1648 11538,-4185 10779,-8369 12048,-25994 12048,-45650l0 -22572 12554 0 0 71013 16611 0 0 -85469 -44509 0z"/>
  <path id="7" class="fil0" d="M405781 380l0 85088c3804,634 9130,1014 15470,1014 12173,0 21431,-3169 27263,-9256 4439,-4565 7102,-10779 7102,-19275 0,-16231 -10399,-26122 -26629,-26122 -3424,0 -5326,253 -6722,508l0 -31957 -16484 0zm16611 45272c1014,-255 2410,-381 3804,-381 7989,0 12174,5960 12174,13695 0,7734 -4312,14201 -12807,14201 -1016,0 -2030,0 -3171,-253l0 -27262z"/>
  <polygon id="8" class="fil0" points="466014,380 466014,85849 482625,85849 482625,50089 499997,50089 499997,85849 516610,85849 516610,380 499997,380 499997,34619 482625,34619 482625,380 "/>
  <path id="9" class="fil0" d="M560232 66320l3677 19529 16105 0 -16613 -85469 -19907 0 -18515 85469 16105 0 3804 -19529 15344 0zm-13695 -12934l3169 -17880c888,-4945 2157,-13695 3044,-19401l380 0c761,5579 1902,14203 2790,19401l2790 17880 -12173 0z"/>
 </g>
</svg>
