<?xml version="1.0" encoding="UTF-8"?>
<!DOCTYPE svg PUBLIC "-//W3C//DTD SVG 1.1//EN" "http://www.w3.org/Graphics/SVG/1.1/DTD/svg11.dtd">
<!-- Creator: CorelDRAW X7 -->
<svg xmlns="http://www.w3.org/2000/svg" xml:space="preserve" width="67.5728mm" height="5.8844mm" version="1.1" style="shape-rendering:geometricPrecision; text-rendering:geometricPrecision; image-rendering:optimizeQuality; fill-rule:evenodd; clip-rule:evenodd"
viewBox="0 0 812913 70790"
 xmlns:xlink="http://www.w3.org/1999/xlink">
 <defs>
  <style type="text/css">
   <![CDATA[
    .fil0 {fill:#FEFEFE;fill-rule:nonzero}
   ]]>
  </style>
 </defs>
 <g id="Слой_x0020_1">
  <metadata id="CorelCorpID_0Corel-Layer"/>
  <path class="fil0" d="M9473 814l0 30965c0,13344 -815,20983 -4890,25159 -1222,1120 -2953,1935 -4583,2342l2852 11306c3463,0 6723,-1323 9268,-3361 8659,-6723 9677,-20880 9677,-36668l0 -18131 10084 0 0 57040 13343 0 0 -68652 -35751 0zm47567 0l0 68652 13343 0 0 -68652 -13343 0zm25260 0l0 68652 13037 0 0 -29131 1019 0c5398,0 7231,5194 8962,13241 1121,5297 2038,11001 3769,15890l13242 0c-1936,-6315 -3158,-12834 -4584,-19556 -1935,-8353 -4278,-14668 -11306,-17418l15685 -31678 -14667 0 -11101 29845 -1019 0 0 -29845 -13037 0zm42576 0l15990 47771c510,1528 611,2649 102,4075 -1019,3361 -3870,6925 -7333,6925 -1630,0 -2648,-203 -3259,-305l-510 10899c1324,407 3055,611 5399,611 5703,0 10695,-3565 13954,-8963 3463,-5806 6111,-15279 8453,-23937l10186 -37076 -13547 0 -4583 26076c-612,3871 -1120,8047 -1629,11306l-306 0c-510,-3056 -1324,-7129 -2241,-11001l-6315 -26381 -14361 0zm47362 68346c3056,509 7334,815 12426,815 11510,0 18437,-2445 22510,-6926 3260,-3361 5094,-7843 5094,-13445 0,-7639 -4177,-14158 -12122,-16398l0 -408c6723,-2954 9880,-8862 9880,-14973 0,-4788 -1527,-9371 -5194,-12427 -4787,-4073 -11001,-4889 -17417,-4889 -5704,0 -11103,408 -15177,1324l0 67327zm13343 -58262c815,-305 2037,-406 3565,-406 5399,0 7741,3870 7741,8861 0,5602 -3667,9676 -8453,9676l-2853 0 0 -18131zm0 28011l2853 0c5295,0 9981,3565 9981,10492 0,6926 -4380,10287 -9880,10287 -1120,0 -2139,0 -2954,-204l0 -20575zm59077 14871l2953 15686 12936 0 -13344 -68652 -15990 0 -14872 68652 12936 0 3056 -15686 12325 0zm-11001 -10390l2546 -14361c713,-3973 1732,-11001 2444,-15584l306 0c611,4481 1528,11408 2241,15584l2242 14361 -9779 0zm38807 -42576l0 30965c0,13344 -814,20983 -4889,25159 -1222,1120 -2953,1935 -4583,2342l2852 11306c3462,0 6723,-1323 9268,-3361 8658,-6723 9677,-20880 9677,-36668l0 -18131 10084 0 0 57040 13343 0 0 -68652 -35752 0zm47568 0l0 68346c3055,509 7333,815 12426,815 9778,0 17214,-2546 21898,-7435 3566,-3667 5705,-8658 5705,-15483 0,-13037 -8353,-20982 -21390,-20982 -2750,0 -4278,204 -5399,408l0 -25669 -13240 0zm13342 36364c815,-204 1936,-305 3056,-305 6417,0 9778,4786 9778,11000 0,6212 -3463,11407 -10287,11407 -816,0 -1630,0 -2547,-203l0 -21899zm35039 -36364l0 68652 13343 0 0 -28723 13954 0 0 28723 13344 0 0 -68652 -13344 0 0 27503 -13954 0 0 -27503 -13343 0zm71809 -814c-15279,0 -22713,16195 -22713,34937 0,18843 6111,35343 21695,35343 13037,0 22204,-10490 22204,-36362 0,-15686 -4686,-33918 -21186,-33918zm-612 11612c6112,0 7945,10899 7945,22917 0,13955 -2139,24140 -7842,24140 -5398,0 -8353,-7945 -8353,-23529 0,-14768 2955,-23528 8250,-23528zm27400 24955l0 9574 20270 0 0 -9574 -20270 0zm60808 20676c-1629,509 -4176,1019 -6417,1019 -8148,0 -14361,-6417 -14361,-22816 0,-17010 6824,-23529 14361,-23529 2955,0 4686,611 6214,1325l2241 -11205c-1324,-917 -4583,-1834 -9269,-1834 -13343,0 -27705,10084 -27705,35956 0,19556 8352,33918 25974,33918 4583,0 8351,-713 10287,-1630l-1325 -11204zm18843 12223l13344 0 0 -56327 12223 0 0 -12325 -37687 0 0 12325 12120 0 0 56327zm49807 -69466c-15278,0 -22713,16195 -22713,34937 0,18843 6112,35343 21696,35343 13037,0 22204,-10490 22204,-36362 0,-15686 -4686,-33918 -21187,-33918zm-611 11612c6112,0 7945,10899 7945,22917 0,13955 -2139,24140 -7843,24140 -5397,0 -8352,-7945 -8352,-23529 0,-14768 2955,-23528 8250,-23528zm32187 -10798l0 30965c0,13344 -814,20983 -4889,25159 -1222,1120 -2953,1935 -4584,2342l2853 11306c3462,0 6722,-1323 9268,-3361 8658,-6723 9677,-20880 9677,-36668l0 -18131 10084 0 0 57040 13342 0 0 -68652 -35751 0zm66919 -814c-15278,0 -22713,16195 -22713,34937 0,18843 6111,35343 21695,35343 13037,0 22204,-10490 22204,-36362 0,-15686 -4685,-33918 -21186,-33918zm-611 11612c6111,0 7945,10899 7945,22917 0,13955 -2139,24140 -7843,24140 -5398,0 -8352,-7945 -8352,-23529 0,-14768 2954,-23528 8250,-23528zm30252 57548c3056,509 7334,815 12426,815 11509,0 18436,-2445 22510,-6926 3260,-3361 5093,-7843 5093,-13445 0,-7639 -4176,-14158 -12121,-16398l0 -408c6722,-2954 9880,-8862 9880,-14973 0,-4788 -1528,-9371 -5194,-12427 -4787,-4073 -11001,-4889 -17418,-4889 -5703,0 -11102,408 -15176,1324l0 67327zm13343 -58262c814,-305 2037,-406 3564,-406 5400,0 7742,3870 7742,8861 0,5602 -3667,9676 -8454,9676l-2852 0 0 -18131zm0 28011l2852 0c5296,0 9982,3565 9982,10492 0,6926 -4381,10287 -9881,10287 -1120,0 -2139,0 -2953,-204l0 -20575zm59076 14871l2954 15686 12936 0 -13344 -68652 -15990 0 -14872 68652 12936 0 3056 -15686 12324 0zm-11000 -10390l2546 -14361c713,-3973 1732,-11001 2444,-15584l306 0c611,4481 1528,11408 2241,15584l2241 14361 -9778 0z"/>
 </g>
</svg>
