<?xml version="1.0" encoding="UTF-8"?>
<!DOCTYPE svg PUBLIC "-//W3C//DTD SVG 1.1//EN" "http://www.w3.org/Graphics/SVG/1.1/DTD/svg11.dtd">
<!-- Creator: CorelDRAW X7 -->
<svg xmlns="http://www.w3.org/2000/svg" xml:space="preserve" width="59.8764mm" height="7.0189mm" version="1.1" style="shape-rendering:geometricPrecision; text-rendering:geometricPrecision; image-rendering:optimizeQuality; fill-rule:evenodd; clip-rule:evenodd"
viewBox="0 0 802841 94112"
 xmlns:xlink="http://www.w3.org/1999/xlink">
 <defs>
  <style type="text/css">
   <![CDATA[
    .fil0 {fill:#FEFEFE;fill-rule:nonzero}
   ]]>
  </style>
 </defs>
 <g id="Слой_x0020_1">
  <metadata id="CorelCorpID_0Corel-Layer"/>
  <path class="fil0" d="M0 77083c3406,567 8174,908 13849,908 12828,0 20549,-2725 25089,-7719 3633,-3747 5677,-8741 5677,-14986 0,-8514 -4656,-15780 -13510,-18276l0 -455c7492,-3292 11012,-9876 11012,-16688 0,-5336 -1703,-10445 -5790,-13851 -5335,-4540 -12260,-5449 -19412,-5449 -6357,0 -12375,455 -16915,1476l0 75040zm14871 -64936c908,-341 2270,-454 3973,-454 6018,0 8628,4314 8628,9877 0,6244 -4087,10784 -9422,10784l-3179 0 0 -20207zm0 31219l3179 0c5903,0 11125,3973 11125,11694 0,7719 -4882,11465 -11012,11465 -1248,0 -2384,0 -3292,-226l0 -22933zm60848 -43366c-17028,0 -25314,18050 -25314,38939 0,21001 6811,39392 24180,39392 14531,0 24748,-11692 24748,-40528 0,-17483 -5223,-37803 -23614,-37803zm-681 12942c6812,0 8855,12148 8855,25543 0,15553 -2384,26905 -8741,26905 -6016,0 -9309,-8855 -9309,-26224 0,-16460 3293,-26224 9195,-26224zm38372 -12034l0 19300c0,8968 -681,17936 -2157,26678 -1192,6243 -2781,12033 -5165,17822l-5335 228 567 29176 11239 0 567 -16688 33093 0 681 16688 11239 0 681 -29176 -6018 -228 0 -63800 -39392 0zm13623 12941l10898 0 0 50633 -16574 0c1589,-4654 2951,-10444 3747,-16007 1248,-8174 1929,-17028 1929,-25769l0 -8857zm66753 46091l3292 17484 14418 0 -14873 -76516 -17822 0 -16575 76516 14418 0 3405 -17484 13737 0zm-12260 -11579l2837 -16007c795,-4427 1931,-12260 2724,-17369l341 0c681,4995 1703,12715 2498,17369l2498 16007 -10898 0zm64707 29063l14872 0 0 -62779 13623 0 0 -13737 -42004 0 0 13737 13509 0 0 62779zm36328 -76516l0 76516 13736 0 11239 -29176c2498,-6470 5903,-15666 7720,-22477l227 0c-455,7719 -1022,19072 -1022,34397l0 17256 13056 0 0 -76516 -13511 0 -11238 29631c-2270,5789 -6131,15893 -8287,22477l-228 0c569,-7947 1477,-21115 1477,-35192l0 -16916 -13169 0zm58238 0l0 76516 14871 0 0 -63575 15212 0 0 63575 14872 0 0 -76516 -44955 0zm50292 0l17822 53243c569,1703 681,2952 114,4541 -1136,3746 -4313,7719 -8174,7719 -1816,0 -2951,-226 -3632,-340l-568 12148c1476,453 3405,681 6017,681 6357,0 11920,-3974 15552,-9991 3861,-6471 6812,-17028 9423,-26678l11352 -41323 -15099 0 -5108 29062c-681,4315 -1249,8969 -1816,12601l-340 0c-569,-3405 -1477,-7945 -2498,-12260l-7038 -29403 -16007 0zm70839 76175c3405,567 8173,908 13849,908 12828,0 20548,-2725 25088,-7719 3634,-3747 5677,-8741 5677,-14986 0,-8514 -4655,-15780 -13510,-18276l0 -455c7493,-3292 11012,-9876 11012,-16688 0,-5336 -1702,-10445 -5789,-13851 -5335,-4540 -12261,-5449 -19413,-5449 -6357,0 -12374,455 -16914,1476l0 75040zm14871 -64936c907,-341 2270,-454 3973,-454 6017,0 8628,4314 8628,9877 0,6244 -4087,10784 -9422,10784l-3179 0 0 -20207zm0 31219l3179 0c5902,0 11125,3973 11125,11694 0,7719 -4882,11465 -11013,11465 -1248,0 -2384,0 -3291,-226l0 -22933zm61529 -43366c-17028,0 -25315,18050 -25315,38939 0,21001 6812,39392 24181,39392 14530,0 24747,-11692 24747,-40528 0,-17483 -5222,-37803 -23613,-37803zm-681 12942c6811,0 8855,12148 8855,25543 0,15553 -2384,26905 -8741,26905 -6016,0 -9309,-8855 -9309,-26224 0,-16460 3293,-26224 9195,-26224zm33718 64482l14871 0 0 -30538 2270 0c4882,0 7266,2725 8628,12147 1136,8514 2839,16233 3860,18391l15553 0c-1363,-2839 -3406,-12261 -4882,-20775 -1475,-8288 -4087,-13056 -9308,-15212l0 -228c7719,-3518 11806,-10898 11806,-19072 0,-6585 -1476,-11693 -6130,-15893 -4882,-4427 -12261,-5677 -20435,-5677 -5675,0 -11579,569 -16233,1476l0 75381zm14871 -64823c795,-340 2270,-454 3632,-454 6585,228 9196,4768 9196,11352 0,6699 -3633,11920 -10103,11920l-2725 0 0 -22818zm47680 41097c0,9876 -3634,11579 -7947,11579 -1930,0 -3520,-114 -4882,-569l-1248 12489c1588,681 4427,1134 7492,1134 10784,0 21456,-3291 21456,-25315l0 -52108 -14871 0 0 52790zm48700 -53698c-17028,0 -25315,18050 -25315,38939 0,21001 6812,39392 24181,39392 14530,0 24748,-11692 24748,-40528 0,-17483 -5223,-37803 -23614,-37803zm-681 12942c6811,0 8855,12148 8855,25543 0,15553 -2384,26905 -8741,26905 -6016,0 -9309,-8855 -9309,-26224 0,-16460 3293,-26224 9195,-26224zm81851 64482l13284 0 -4656 -76516 -15666 0 -6130 27700c-1930,9650 -3633,18278 -4768,26792l-341 0c-1362,-8628 -3292,-17142 -5335,-26792l-6130 -27700 -15780 0 -5450 76516 12715 0 1363 -26565c340,-7606 908,-17255 1134,-25543l228 0c1248,8288 3292,17824 4768,23954l6357 26905 10444 0 6698 -27359c1475,-5904 3519,-15326 4881,-23500l228 0c-114,8174 341,18050 794,25316l1362 26792zm24182 -76516l0 76516 14871 0 0 -76516 -14871 0z"/>
 </g>
</svg>
