<?xml version="1.0" encoding="UTF-8"?>
<!DOCTYPE svg PUBLIC "-//W3C//DTD SVG 1.1//EN" "http://www.w3.org/Graphics/SVG/1.1/DTD/svg11.dtd">
<!-- Creator: CorelDRAW X7 -->
<svg xmlns="http://www.w3.org/2000/svg" xml:space="preserve" width="49.8519mm" height="25.7209mm" version="1.1" style="shape-rendering:geometricPrecision; text-rendering:geometricPrecision; image-rendering:optimizeQuality; fill-rule:evenodd; clip-rule:evenodd"
viewBox="0 0 263867 136141"
 xmlns:xlink="http://www.w3.org/1999/xlink">
 <defs>
  <style type="text/css">
   <![CDATA[
    .fil0 {fill:#FEFEFE;fill-rule:nonzero}
   ]]>
  </style>
 </defs>
 <g id="Слой_x0020_1">
  <metadata id="CorelCorpID_0Corel-Layer"/>
  <g id="_859333488">
   <path class="fil0" d="M3787 37308c1120,0 2241,0 3361,-168 3585,-560 6778,-2185 9019,-4594 3361,-3585 5994,-9355 5994,-17590 0,-8794 -3585,-14956 -10363,-14956 -7003,0 -10812,6498 -10812,12772 0,6666 3865,10867 8571,10867 2352,0 4033,-952 5209,-2240l168 0c-616,3248 -1960,5826 -3529,7338 -1288,1177 -2857,1905 -4313,2185 -1177,224 -1905,280 -3305,280l0 6106zm7618 -31986c2017,0 3361,2688 3361,7506 0,2408 -56,3193 -336,3865 -392,952 -1512,1905 -2801,1905 -2240,0 -3361,-2913 -3417,-6442 -112,-4426 1345,-6834 3193,-6834zm24256 -5322c-7506,0 -10867,8347 -10867,18822 0,9355 2688,18486 10643,18486 5882,0 10644,-5770 10644,-18822 0,-8683 -1905,-18486 -10420,-18486zm-56 6274c2353,0 3081,4538 3081,12380 0,8346 -840,12380 -3081,12380 -2465,0 -3529,-3865 -3417,-12380 -56,-8459 1120,-12380 3417,-12380zm22519 30586l6610 0 280 -9524c112,-2632 168,-5993 280,-11651l112 0c560,2801 1569,8179 2241,11204l2129 9522 5937 0 2185 -9355c897,-4257 1849,-9018 2297,-11315l112 0c56,5714 168,8963 280,11540l280 9579 6834 0 -1792 -27393 -9075 0 -1961 8739c-504,2297 -896,4593 -1624,8066l-168 0c-729,-3585 -1232,-5713 -1793,-8066l-2073 -8739 -9075 0 -2016 27393z"/>
   <polygon class="fil0" points="97964,22385 97964,26597 106882,26597 106882,22385 "/>
   <path class="fil0" d="M117951 6654l0 30206 5871 0 0 -25097 8021 0 0 -5109 -13892 0zm17567 0l0 13624c0,5871 -358,9232 -2151,11069 -538,493 -1299,852 -2016,1031l1255 4974c1523,0 2957,-582 4077,-1479 3810,-2957 4258,-9186 4258,-16133l0 -7977 4437 0 0 25097 5870 0 0 -30206 -15730 0zm20929 0l0 30206 5422 0 4437 -11518c986,-2554 2330,-6184 3047,-8873l90 0c-180,3047 -403,7529 -403,13579l0 6812 5153 0 0 -30206 -5333 0 -4437 11697c-896,2286 -2419,6274 -3271,8874l-90 0c225,-3138 583,-8336 583,-13893l0 -6678 -5198 0zm22990 0l0 30071c1344,224 3226,358 5467,358 4302,0 7574,-1075 9635,-3226 1569,-1614 2510,-3943 2510,-6857 0,-3047 -1121,-5377 -2914,-6946 -1613,-1479 -3943,-2285 -6497,-2285 -852,0 -1524,89 -2376,224l0 -6319 9546 0 0 -5020 -15371 0zm5870 16000c403,-90 852,-135 1345,-135 1299,0 2375,582 3137,1434 761,896 1165,2106 1165,3496 0,1344 -404,2599 -1121,3495 -762,896 -1837,1434 -3226,1434 -493,0 -897,0 -1300,-135l0 -9589zm15282 -16000l0 30206 5422 0 4437 -11518c986,-2554 2330,-6184 3048,-8873l89 0c-179,3047 -403,7529 -403,13579l0 6812 5154 0 0 -30206 -5334 0 -4436 11697c-896,2286 -2420,6274 -3271,8874l-90 0c224,-3138 582,-8336 582,-13893l0 -6678 -5198 0zm22990 0l0 30206 5870 0 0 -12638 6140 0 0 12638 5871 0 0 -30206 -5871 0 0 12101 -6140 0 0 -12101 -5870 0zm33297 23304l1300 6902 5691 0 -5871 -30206 -7035 0 -6544 30206 5692 0 1344 -6902 5423 0zm-4840 -4571l1120 -6319c314,-1748 762,-4840 1076,-6856l134 0c269,1971 672,5019 986,6856l986 6319 -4302 0zm-239577 55431l1299 6901 5692 0 -5871 -30205 -7036 0 -6543 30205 5692 0 1344 -6901 5423 0zm-4840 -4571l1120 -6319c314,-1748 762,-4840 1075,-6857l135 0c269,1972 672,5019 986,6857l986 6319 -4302 0zm15147 11472l5870 0 0 -11248c404,44 762,44 1165,44 2465,0 5468,-896 7350,-2912 1569,-1659 2555,-3989 2555,-7260 0,-2555 -807,-5065 -2600,-6633 -1927,-1837 -4705,-2330 -8201,-2330 -2240,0 -4481,224 -6139,582l0 29757zm5870 -25365c359,-135 896,-224 1434,-224 2734,0 3810,2062 3810,4706 0,2823 -1300,4929 -4258,4929 -358,0 -672,0 -986,-45l0 -9366zm18016 25365l5871 0 0 -24782 5377 0 0 -5423 -16581 0 0 5423 5333 0 0 24782zm27068 -18150l-6857 0 0 -6946 7260 0 0 -5109 -13130 0 0 30205 13623 0 0 -5109 -7753 0 0 -8156 6857 0 0 -4885zm4571 -6140c1210,-672 2823,-1254 4212,-1254 2510,0 3810,1434 3810,3541 0,2733 -2689,4033 -5333,4033l-628 0 0 4481 896 0c3138,0 5916,1300 5916,4705 0,2420 -1658,4213 -4795,4213 -1658,0 -3361,-448 -4661,-1210l-896 4795c1389,762 3630,1344 6140,1344 5377,0 10307,-3181 10307,-8962 0,-4168 -2420,-6902 -5961,-7574l0 -89c3048,-762 5109,-3765 5109,-6857 0,-3944 -2689,-7439 -8425,-7439 -2868,0 -5377,851 -6677,1747l986 4526zm18553 -5915l0 30205 5871 0 0 -30205 -5871 0zm21332 23304l1299 6901 5692 0 -5871 -30205 -7036 0 -6543 30205 5692 0 1344 -6901 5423 0zm-4840 -4571l1120 -6319c314,-1748 762,-4840 1075,-6857l135 0c269,1972 672,5019 986,6857l986 6319 -4302 0zm15147 -18733l0 30205 5870 0 0 -12637 6140 0 0 12637 5871 0 0 -30205 -5871 0 0 12100 -6140 0 0 -12100 -5870 0zm36972 24827c-717,224 -1838,449 -2824,449 -3585,0 -6319,-2824 -6319,-10039 0,-7484 3003,-10352 6319,-10352 1300,0 2062,269 2734,583l986 -4930c-583,-404 -2016,-807 -4078,-807 -5871,0 -12189,4437 -12189,15820 0,8604 3674,14923 11427,14923 2017,0 3675,-314 4526,-717l-582 -4930zm3809 -24827l0 30071c1344,224 3227,358 5467,358 4302,0 7574,-1120 9635,-3271 1569,-1613 2510,-3809 2510,-6812 0,-5736 -3675,-9232 -9411,-9232 -1210,0 -1882,90 -2376,180l0 -11294 -5825 0zm5870 15999c359,-90 852,-134 1345,-134 2823,0 4302,2106 4302,4840 0,2733 -1524,5019 -4526,5019 -359,0 -717,0 -1121,-90l0 -9635zm15417 -15999l0 30205 5736 0 0 -12817 448 0c2375,0 3182,2286 3944,5826 493,2331 896,4840 1658,6991l5826 0c-852,-2778 -1390,-5646 -2017,-8604 -851,-3675 -1882,-6453 -4974,-7663l6901 -13938 -6453 0 -4885 13131 -448 0 0 -13131 -5736 0zm28412 -358c-6722,0 -9993,7125 -9993,15371 0,8291 2688,15550 9545,15550 5736,0 9769,-4615 9769,-15998 0,-6902 -2061,-14923 -9321,-14923zm-269 5108c2689,0 3495,4796 3495,10084 0,6140 -941,10621 -3450,10621 -2375,0 -3675,-3496 -3675,-10352 0,-6498 1300,-10353 3630,-10353zm13310 -4750l0 30205 5871 0 0 -30205 -5871 0zm-1210 -1837c1479,0 2689,-1255 2689,-2869 0,-1568 -1210,-2823 -2644,-2823 -1389,0 -2644,1255 -2644,2823 0,1614 1210,2869 2599,2869zm8246 0c1479,0 2689,-1255 2689,-2869 0,-1568 -1210,-2823 -2644,-2823 -1434,0 -2689,1255 -2689,2823 0,1614 1210,2869 2644,2869z"/>
  </g>
  <path class="fil0" d="M12414 122563c-627,313 -1345,448 -2196,448 -2734,0 -4392,-2420 -4392,-6364 0,-3809 1658,-6498 4482,-6498 985,0 1702,224 2195,403l762 -4615c-582,-269 -1837,-583 -3226,-583 -6050,0 -10039,4705 -10039,11473 0,7125 3630,10979 9187,10979 1658,0 3137,-359 3720,-627l-493 -4616zm2778 4974c1255,179 3316,269 5423,269 4436,0 11606,-852 11606,-6693 0,-2614 -1882,-4735 -5153,-5228l0 -134c2241,-538 4212,-2226 4212,-4990 0,-4869 -5825,-5497 -9680,-5497 -2240,0 -4615,179 -6408,448l0 21825zm5692 -18329c403,-90 896,-135 1478,-135 2062,0 3451,852 3451,2555 0,1747 -1658,2734 -3630,2734l-1299 0 0 -5154zm-45 8918l1389 0c2286,0 4168,941 4168,2958 0,2151 -2017,2912 -4079,2912 -492,0 -1075,-44 -1478,-134l0 -5736zm29801 538c89,-628 179,-1479 179,-3047 0,-6678 -2733,-10398 -7439,-10398 -4929,0 -8784,4392 -8784,11786 0,6857 3272,10801 9277,10801 2196,0 4481,-404 5960,-986l-761 -4212c-1076,358 -2510,716 -4168,716 -2555,0 -4571,-1254 -4616,-4660l10352 0zm-10352 -4123c45,-2196 851,-5019 2734,-5019 1747,0 2464,2196 2464,5019l-5198 0zm13802 21600l5871 0 0 -10397 90 0c627,1031 1837,2151 3630,2151 3719,0 7125,-3540 7125,-11337 0,-6095 -1972,-11339 -6767,-11339 -2061,0 -3719,1121 -4616,2913l-89 0 -314 -2509 -5109 0c90,2106 179,4302 179,6946l0 23572zm5871 -22497c0,-537 45,-1120 269,-1568 224,-1031 1075,-1882 1972,-1882 1748,0 2778,2240 2778,6408 0,3451 -761,6498 -2823,6498 -672,0 -1434,-358 -1882,-1702 -224,-449 -314,-1121 -314,-1838l0 -5916zm16089 -8021l0 5960c0,2420 -224,4930 -718,7170 -320,1569 -858,3272 -1628,4482l-1792 89 224 10263 4444 0 269 -6050 10650 0 314 6050 4392 0 224 -10263 -2039 -89 0 -17612 -14340 0zm5153 4526l3406 0 0 12951 -5288 0c672,-1344 1120,-2868 1345,-4436 358,-2196 537,-4526 537,-6677l0 -1838zm15371 -4526l0 9635c0,2420 -179,5108 -986,6498 -403,717 -896,1299 -1971,1568l941 4661c941,0 2061,-224 3002,-672 3899,-1838 4482,-6409 4482,-12234l0 -4706 3271 0 0 17164 5871 0 0 -21914 -14610 0zm26441 -404c-4347,0 -8470,3541 -8470,11428 0,7126 3137,11248 8380,11248 3316,0 8381,-2240 8381,-11382 0,-6946 -3093,-11294 -8291,-11294zm-45 4482c2017,0 2510,3809 2510,6812 0,3226 -493,6901 -2420,6901 -2107,0 -2689,-3137 -2689,-6901 0,-3003 448,-6812 2599,-6812zm11607 17836c1255,179 3316,269 5422,269 4437,0 11607,-852 11607,-6693 0,-2614 -1882,-4735 -5153,-5228l0 -134c2240,-538 4212,-2226 4212,-4990 0,-4869 -5826,-5497 -9680,-5497 -2241,0 -4616,179 -6408,448l0 21825zm5691 -18329c404,-90 896,-135 1479,-135 2061,0 3451,852 3451,2555 0,1747 -1659,2734 -3630,2734l-1300 0 0 -5154zm-45 8918l1390 0c2285,0 4167,941 4167,2958 0,2151 -2016,2912 -4078,2912 -493,0 -1075,-44 -1479,-134l0 -5736zm14655 -12503l0 21914 5467 0c1255,-2644 3002,-6946 3585,-8425 851,-2107 1434,-3899 2151,-6229l134 0c-179,2957 -403,5422 -403,9859l0 4795 5333 0 0 -21914 -5557 0 -3316 8380c-717,1748 -1703,4168 -2420,6453l-135 0c224,-2241 448,-6094 448,-10083l0 -4750 -5287 0zm20345 0l0 21914 5871 0 0 -8649 4616 0 0 8649 5870 0 0 -21914 -5870 0 0 8290 -4616 0 0 -8290 -5871 0zm20481 0l0 21914 5467 0c1255,-2644 3003,-6946 3585,-8425 851,-2107 1434,-3899 2151,-6229l134 0c-179,2957 -403,5422 -403,9859l0 4795 5333 0 0 -21914 -5557 0 -3316 8380c-717,1748 -1703,4168 -2420,6453l-134 0c223,-2241 447,-6094 447,-10083l0 -4750 -5287 0z"/>
 </g>
</svg>
