<?xml version="1.0" encoding="UTF-8"?>
<!DOCTYPE svg PUBLIC "-//W3C//DTD SVG 1.1//EN" "http://www.w3.org/Graphics/SVG/1.1/DTD/svg11.dtd">
<!-- Creator: CorelDRAW X7 -->
<svg xmlns="http://www.w3.org/2000/svg" xml:space="preserve" width="61.3327mm" height="23.2364mm" version="1.1" style="shape-rendering:geometricPrecision; text-rendering:geometricPrecision; image-rendering:optimizeQuality; fill-rule:evenodd; clip-rule:evenodd"
viewBox="0 0 401201 151998"
 xmlns:xlink="http://www.w3.org/1999/xlink">
 <defs>
  <style type="text/css">
   <![CDATA[
    .fil0 {fill:#FEFEFE;fill-rule:nonzero}
   ]]>
  </style>
 </defs>
 <g id="Слой_x0020_1">
  <metadata id="CorelCorpID_0Corel-Layer"/>
  <path class="fil0" d="M19828 27249c110,-775 221,-1828 221,-3766 0,-8253 -3378,-12849 -9194,-12849 -6092,0 -10855,5427 -10855,14565 0,8474 4043,13348 11464,13348 2714,0 5539,-498 7367,-1219l-942 -5205c-1329,443 -3102,885 -5150,885 -3157,0 -5649,-1550 -5705,-5759l12794 0zm-12794 -5095c56,-2714 1052,-6203 3379,-6203 2160,0 3045,2714 3045,6203l-6424 0zm17114 -11022l0 27083 7088 0 0 -11188 499 0c1828,0 2935,1883 3545,4597 609,2769 1163,5095 1993,6591l7200 0c-831,-1828 -1938,-5649 -2381,-7699 -720,-3489 -2105,-6812 -4764,-7753l6924 -11631 -7533 0 -4707 10800 -776 0 0 -10800 -7088 0zm32066 -498c-5372,0 -10467,4375 -10467,14123 0,8806 3877,13901 10357,13901 4098,0 10356,-2769 10356,-14068 0,-8584 -3821,-13956 -10246,-13956zm-55 5538c2492,0 3101,4707 3101,8418 0,3988 -609,8530 -2990,8530 -2603,0 -3323,-3877 -3323,-8530 0,-3711 554,-8418 3212,-8418zm15507 -5040l0 11907c0,2991 -222,6314 -1219,8031 -498,887 -1107,1606 -2436,1938l1163 5761c1163,0 2548,-278 3711,-831 4818,-2271 5538,-7920 5538,-15120l0 -5815 4043 0 0 21212 7255 0 0 -27083 -18055 0zm32676 -498c-5371,0 -10467,4375 -10467,14123 0,8806 3877,13901 10357,13901 4098,0 10357,-2769 10357,-14068 0,-8584 -3822,-13956 -10247,-13956zm-55 5538c2493,0 3102,4707 3102,8418 0,3988 -609,8530 -2991,8530 -2603,0 -3323,-3877 -3323,-8530 0,-3711 554,-8418 3212,-8418zm14344 -5040l0 27083 7255 0 0 -21101 7755 0 0 -5982 -15010 0zm25477 27083l0 -27083 -7255 0 0 27083 7255 0zm-3711 -38215c-1994,0 -3766,1550 -3710,3988 -56,2326 1606,3932 3600,3932 2215,0 3877,-1606 3821,-3932 0,-2438 -1606,-3988 -3711,-3988zm8252 11132l0 10347c0,5216 2271,8539 7588,8539 1883,0 3932,-443 5040,-1218l166 0 0 9691 7255 0 0 -27359 -7310 0 0 12904c-610,444 -1496,721 -2548,721 -2160,0 -2935,-1440 -2935,-3721l0 -9904 -7256 0zm25090 0l0 27083 7255 0 0 -10689 5704 0 0 10689 7255 0 0 -27083 -7255 0 0 10246 -5704 0 0 -10246 -7255 0zm34836 -498c-5372,0 -10468,4375 -10468,14123 0,8806 3877,13901 10357,13901 4098,0 10357,-2769 10357,-14068 0,-8584 -3821,-13956 -10246,-13956zm-55 5538c2492,0 3101,4707 3101,8418 0,3988 -609,8530 -2991,8530 -2602,0 -3323,-3877 -3323,-8530 0,-3711 554,-8418 3213,-8418zm-207855 46535l0 10347c0,5216 2271,8539 7588,8539 1882,0 3932,-443 5039,-1218l166 0 0 9691 7256 0 0 -27359 -7311 0 0 12904c-609,444 -1495,720 -2548,720 -2160,0 -2935,-1439 -2935,-3720l0 -9904 -7255 0zm25089 0l0 27083 6757 0c1551,-3268 3711,-8585 4430,-10412 1053,-2604 1773,-4819 2659,-7699l166 0c-221,3656 -499,6702 -499,12185l0 5926 6591 0 0 -27083 -6867 0 -4099 10357c-886,2160 -2105,5151 -2990,7975l-166 0c276,-2769 553,-7532 553,-12461l0 -5871 -6535 0zm39544 20935c-775,388 -1661,554 -2714,554 -3378,0 -5427,-2991 -5427,-7865 0,-4707 2049,-8030 5538,-8030 1218,0 2105,277 2714,498l942 -5704c-721,-332 -2272,-720 -3988,-720 -7477,0 -12406,5815 -12406,14178 0,8806 4486,13569 11353,13569 2050,0 3878,-443 4597,-775l-609 -5705zm3212 -20935l0 5926 6037 0 0 21157 7255 0 0 -21157 6037 0 0 -5926 -19329 0zm39987 10855c0,-5538 -1329,-11298 -9581,-11298 -3822,0 -6923,1218 -8474,2049l1329 4930c1662,-997 3379,-1607 5539,-1607 2602,0 3821,1551 3821,3711l0 609c-6147,56 -12406,2936 -12406,10080 0,4763 3046,8197 7145,8197 2381,0 4541,-1052 5981,-3102l167 0 387 2659 6480 0c-277,-1828 -388,-4044 -388,-6204l0 -10024zm-7144 7754c0,498 -56,886 -166,1274 -499,1606 -1773,2326 -2991,2326 -1108,0 -2603,-997 -2603,-3656 0,-3765 3378,-4596 5760,-4652l0 4708zm17944 -18609l7477 25089c111,332 221,664 221,997 0,388 -166,720 -387,1163 -499,1163 -1274,2326 -2271,3267 -1108,997 -2381,1773 -3600,2216l2216 6258c1107,-277 3821,-1550 6147,-4264 2935,-3434 4707,-8696 6037,-13791l5538 -20935 -7144 0 -2216 14233c-221,1496 -443,3047 -665,4432l-110 0c-222,-1496 -443,-2936 -775,-4542l-2659 -14123 -7809 0zm23982 0l0 27083 7255 0 0 -10690 5704 0 0 10690 7255 0 0 -27083 -7255 0 0 10246 -5704 0 0 -10246 -7255 0zm32565 27083l0 -27083 -7255 0 0 27083 7255 0zm-3711 -38215c-1993,0 -3766,1550 -3710,3988 -56,2326 1606,3932 3600,3932 2215,0 3877,-1606 3821,-3932 0,-2438 -1606,-3988 -3711,-3988zm8807 11132l0 27083 7089 0 0 -11188 498 0c1828,0 2935,1883 3545,4597 609,2769 1163,5095 1994,6591l7199 0c-830,-1828 -1938,-5649 -2381,-7699 -720,-3489 -2105,-6812 -4763,-7753l6923 -11631 -7532 0 -4708 10800 -775 0 0 -10800 -7089 0zm41981 10855c0,-5538 -1330,-11298 -9582,-11298 -3822,0 -6923,1218 -8474,2049l1329 4930c1662,-997 3379,-1607 5539,-1607 2603,0 3821,1551 3821,3711l0 609c-6147,56 -12405,2936 -12405,10080 0,4763 3045,8197 7144,8197 2381,0 4541,-1052 5982,-3102l166 0 387 2659 6480 0c-277,-1828 -387,-4044 -387,-6204l0 -10024zm-7145 7754c0,498 -55,886 -166,1274 -498,1606 -1773,2326 -2991,2326 -1108,0 -2603,-997 -2603,-3656 0,-3765 3378,-4596 5760,-4652l0 4708zm13347 -18609l0 11907c0,2991 -222,6314 -1218,8031 -499,887 -1108,1606 -2437,1938l1163 5761c1163,0 2548,-278 3711,-831 4818,-2271 5538,-7920 5538,-15120l0 -5815 4043 0 0 21212 7255 0 0 -27083 -18055 0zm23095 0l0 26861c2050,277 4763,498 7089,498 3767,0 7754,-609 10579,-2658 1994,-1495 3433,-3822 3433,-7033 0,-6591 -5150,-9250 -11132,-9250 -886,0 -1717,56 -2769,222l0 -8640 -7200 0zm7200 13846c499,-55 942,-111 1440,-111 2659,0 5151,1219 5151,4154 0,2880 -2437,4154 -5095,4154 -499,0 -997,0 -1496,-55l0 -8142zm17889 -13846l0 27083 7255 0 0 -10690 5705 0 0 10690 7255 0 0 -27083 -7255 0 0 10246 -5705 0 0 -10246 -7255 0zm25311 0l0 27083 6756 0c1551,-3268 3711,-8585 4431,-10412 1052,-2604 1772,-4819 2658,-7699l166 0c-221,3656 -498,6702 -498,12185l0 5926 6591 0 0 -27083 -6868 0 -4098 10357c-886,2160 -2105,5151 -2991,7975l-166 0c277,-2769 553,-7532 553,-12461l0 -5871 -6534 0zm25144 0l0 27083 6757 0c1551,-3268 3711,-8585 4430,-10412 1053,-2604 1773,-4819 2659,-7699l166 0c-221,3656 -499,6702 -499,12185l0 5926 6591 0 0 -27083 -6867 0 -4099 10357c-886,2160 -2105,5151 -2990,7975l-166 0c276,-2769 553,-7532 553,-12461l0 -5871 -6535 0zm3046 -10467c166,4319 2381,6922 6757,6922 4541,0 6978,-2603 7199,-6922l-4430 0c-56,1993 -831,3377 -2603,3377 -1495,0 -2437,-1163 -2492,-3377l-4431 0zm-330586 89125l6535 0 277 -9415c111,-2604 166,-5927 277,-11520l111 0c553,2769 1550,8085 2215,11076l2105 9416 5870 0 2160 -9250c886,-4208 1828,-8916 2271,-11187l111 0c55,5649 166,8861 276,11409l278 9471 6756 0 -1772 -27083 -8972 0 -1939 8640c-498,2270 -885,4542 -1606,7975l-166 0c-720,-3545 -1218,-5649 -1772,-7975l-2049 -8640 -8972 0 -1994 27083zm40818 0l0 -27083 -7255 0 0 27083 7255 0zm-3711 -38215c-1994,0 -3766,1550 -3710,3987 -56,2327 1606,3932 3600,3932 2215,0 3877,-1605 3821,-3932 0,-2437 -1606,-3987 -3711,-3987zm8807 11132l0 27083 7255 0 0 -10690 5705 0 0 10690 7255 0 0 -27083 -7255 0 0 10246 -5705 0 0 -10246 -7255 0zm44196 16117c111,-776 222,-1828 222,-3766 0,-8253 -3379,-12849 -9194,-12849 -6092,0 -10856,5427 -10856,14565 0,8474 4044,13348 11465,13348 2714,0 5538,-499 7366,-1219l-941 -5205c-1329,442 -3102,885 -5151,885 -3157,0 -5649,-1550 -5705,-5759l12794 0zm-12794 -5095c56,-2714 1053,-6204 3379,-6204 2160,0 3046,2714 3046,6204l-6425 0zm17058 26694l7255 0 0 -12849 112 0c775,1274 2270,2658 4486,2658 4596,0 8806,-4374 8806,-14011 0,-7533 -2438,-14012 -8364,-14012 -2547,0 -4596,1384 -5704,3599l-111 0 -388 -3101 -6313 0c111,2603 221,5317 221,8584l0 29132zm7255 -27803c0,-664 56,-1384 333,-1938 277,-1273 1329,-2326 2437,-2326 2160,0 3434,2769 3434,7920 0,4265 -942,8031 -3490,8031 -830,0 -1772,-443 -2326,-2105 -276,-554 -388,-1385 -388,-2271l0 -7311zm35834 942c0,-5538 -1329,-11298 -9582,-11298 -3821,0 -6922,1218 -8473,2049l1329 4929c1661,-996 3378,-1606 5538,-1606 2603,0 3822,1551 3822,3711l0 609c-6148,55 -12406,2936 -12406,10080 0,4763 3046,8196 7145,8196 2381,0 4541,-1051 5981,-3101l166 0 387 2659 6480 0c-276,-1828 -387,-4044 -387,-6204l0 -10024zm-7144 7754c0,498 -56,886 -167,1274 -498,1606 -1772,2326 -2990,2326 -1108,0 -2604,-997 -2604,-3656 0,-3766 3379,-4596 5761,-4652l0 4708zm13347 -18609l0 11907c0,2991 -222,6314 -1219,8031 -498,886 -1107,1606 -2437,1938l1163 5761c1163,0 2548,-278 3711,-831 4819,-2271 5538,-7920 5538,-15120l0 -5815 4043 0 0 21212 7256 0 0 -27083 -18055 0zm23095 0l0 26861c2049,277 4762,498 7089,498 3766,0 7754,-609 10578,-2658 1994,-1495 3434,-3822 3434,-7033 0,-6592 -5151,-9250 -11132,-9250 -887,0 -1717,56 -2769,222l0 -8640 -7200 0zm7200 13846c498,-55 941,-111 1440,-111 2658,0 5150,1219 5150,4154 0,2880 -2436,4153 -5095,4153 -498,0 -997,0 -1495,-54l0 -8142zm17888 -13846l0 27083 7256 0 0 -10690 5704 0 0 10690 7255 0 0 -27083 -7255 0 0 10246 -5704 0 0 -10246 -7256 0zm25311 0l0 27083 6757 0c1551,-3268 3711,-8585 4430,-10412 1053,-2604 1773,-4819 2659,-7699l166 0c-221,3655 -499,6702 -499,12185l0 5926 6591 0 0 -27083 -6867 0 -4099 10357c-886,2160 -2105,5151 -2990,7975l-166 0c276,-2769 553,-7532 553,-12461l0 -5871 -6535 0zm25145 0l0 27083 6756 0c1551,-3268 3711,-8585 4431,-10412 1052,-2604 1772,-4819 2658,-7699l166 0c-221,3655 -498,6702 -498,12185l0 5926 6591 0 0 -27083 -6868 0 -4098 10357c-887,2160 -2105,5151 -2991,7975l-166 0c277,-2769 553,-7532 553,-12461l0 -5871 -6534 0zm3045 -10468c166,4320 2382,6923 6757,6923 4541,0 6979,-2603 7200,-6923l-4431 0c-55,1994 -830,3378 -2602,3378 -1496,0 -2438,-1163 -2493,-3378l-4431 0zm45305 31403c-776,388 -1662,554 -2715,554 -3377,0 -5427,-2991 -5427,-7865 0,-4707 2050,-8031 5539,-8031 1218,0 2104,278 2713,499l942 -5704c-720,-332 -2271,-720 -3988,-720 -7476,0 -12406,5815 -12406,14178 0,8806 4486,13569 11354,13569 2049,0 3877,-443 4597,-775l-609 -5705zm3489 -20935l0 27083 7089 0 0 -11188 498 0c1828,0 2935,1883 3545,4597 609,2769 1163,5095 1994,6591l7199 0c-831,-1828 -1938,-5650 -2381,-7699 -720,-3489 -2105,-6812 -4763,-7753l6923 -11631 -7532 0 -4708 10800 -775 0 0 -10800 -7089 0zm25089 0l0 11907c0,2991 -222,6314 -1219,8031 -499,886 -1108,1606 -2437,1938l1163 5761c1163,0 2548,-278 3711,-831 4819,-2271 5538,-7920 5538,-15120l0 -5815 4043 0 0 21212 7255 0 0 -27083 -18054 0zm41427 10855c0,-5538 -1329,-11298 -9582,-11298 -3822,0 -6923,1218 -8474,2049l1329 4929c1662,-996 3379,-1606 5539,-1606 2603,0 3822,1551 3822,3711l0 609c-6148,55 -12406,2936 -12406,10080 0,4763 3045,8196 7144,8196 2381,0 4541,-1051 5982,-3101l166 0 387 2659 6480 0c-277,-1828 -387,-4044 -387,-6204l0 -10024zm-7145 7754c0,498 -55,886 -166,1274 -498,1606 -1773,2326 -2991,2326 -1108,0 -2603,-997 -2603,-3656 0,-3766 3379,-4596 5760,-4652l0 4708zm15341 -18609l0 7366c0,2991 -277,6092 -886,8861 -397,1939 -1061,4043 -2012,5539l-2216 110 277 12683 5493 0 332 -7476 13162 0 388 7476 5428 0 277 -12683 -2520 -110 0 -21766 -17723 0zm6369 5593l4209 0 0 16007 -6535 0c831,-1662 1385,-3545 1662,-5483 443,-2714 664,-5594 664,-8252l0 -2272zm21434 21932c2603,0 4320,-1882 4320,-4818 0,-2991 -1883,-4818 -4209,-4818 -2271,0 -4265,2049 -4265,4818 0,2936 1938,4818 4154,4818z"/>
 </g>
</svg>
