<?xml version="1.0" encoding="UTF-8"?>
<!DOCTYPE svg PUBLIC "-//W3C//DTD SVG 1.1//EN" "http://www.w3.org/Graphics/SVG/1.1/DTD/svg11.dtd">
<!-- Creator: CorelDRAW X7 -->
<svg xmlns="http://www.w3.org/2000/svg" xml:space="preserve" width="58.6063mm" height="6.875mm" version="1.1" style="shape-rendering:geometricPrecision; text-rendering:geometricPrecision; image-rendering:optimizeQuality; fill-rule:evenodd; clip-rule:evenodd"
viewBox="0 0 614203 72051"
 xmlns:xlink="http://www.w3.org/1999/xlink">
 <defs>
  <style type="text/css">
   <![CDATA[
    .fil0 {fill:#FEFEFE;fill-rule:nonzero}
   ]]>
  </style>
 </defs>
 <g id="Слой_x0020_1">
  <metadata id="CorelCorpID_0Corel-Layer"/>
  <path class="fil0" d="M19166 14197l0 19877 -19166 0 0 7275 19166 0 0 20054 7454 0 0 -20054 19166 0 0 -7275 -19166 0 0 -19877 -7454 0zm46407 45343c2485,1420 6655,2573 11270,2573 12599,0 19343,-8607 19343,-17391 0,-7720 -4259,-12777 -9849,-14641l0 -178c5146,-2396 8341,-7187 8341,-12954 0,-7366 -5147,-13932 -15263,-13932 -4791,0 -9493,1508 -11889,3017l1597 8785c2129,-1420 4613,-2308 7275,-2308 4082,0 6655,2485 6655,6656 0,5590 -5412,7365 -9671,7454l-1154 0 0 8518 1597 0c5768,88 10737,2750 10737,9139 0,4880 -3106,8341 -8784,8341 -3017,0 -6301,-888 -8608,-2219l-1597 9140zm46141 -28483c-4791,3017 -8696,8163 -8696,15350 0,9406 6921,15706 16859,15706 9494,0 17303,-6211 17303,-16859 0,-6833 -3638,-12157 -8962,-15085l0 -177c6123,-3727 7631,-8961 7631,-12777 0,-8608 -6655,-14198 -14907,-14198 -8873,0 -16327,5767 -16327,15173 0,4526 2130,9495 7099,12690l0 177zm8519 23248c-3905,0 -5946,-4171 -5946,-9140 0,-4525 2041,-8075 4969,-10115 3283,1686 6655,5235 6655,10648 0,4880 -1952,8607 -5678,8607zm266 -43479c3371,0 4702,3549 4702,7453 0,3372 -1508,7011 -3993,8253 -3371,-1775 -5679,-4615 -5679,-8696 0,-3549 1509,-7010 4970,-7010zm45696 -10826c-5057,6744 -9938,18812 -10292,36115 0,17125 5235,29281 10292,35936l8342 0c-5147,-8341 -9406,-19788 -9406,-35847 0,-16594 4259,-28129 9406,-36204l-8342 0zm29105 3017c-11891,0 -17215,13221 -17215,29814 0,14819 4259,29282 16860,29282 9316,0 16859,-9139 16859,-29814 0,-13753 -3017,-29282 -16504,-29282zm-89 9939c3726,0 4880,7187 4880,19609 0,13222 -1331,19610 -4880,19610 -3904,0 -5590,-6122 -5413,-19610 -88,-13398 1775,-19609 5413,-19609zm25199 49157c1776,0 3550,0 5324,-266 5679,-887 10737,-3461 14287,-7276 5324,-5679 9494,-14819 9494,-27862 0,-13932 -5679,-23692 -16415,-23692 -11093,0 -17126,10293 -17126,20231 0,10560 6123,17215 13576,17215 3727,0 6389,-1509 8252,-3550l266 0c-975,5147 -3105,9228 -5590,11624 -2040,1863 -4525,3017 -6832,3460 -1863,356 -3017,445 -5236,445l0 9671zm12068 -50667c3195,0 5324,4260 5324,11891 0,3816 -89,5058 -532,6123 -622,1508 -2396,3017 -4437,3017 -3549,0 -5323,-4614 -5413,-10205 -177,-7010 2130,-10826 5058,-10826zm50667 -8429c-1154,89 -3107,177 -5857,622 -4703,975 -10381,3637 -14197,7807 -5324,5680 -9406,14198 -9406,26798 0,14375 6655,23869 17569,23869 11269,0 16504,-10293 16504,-20497 0,-10825 -5324,-17835 -13044,-17835 -3904,0 -6921,1863 -8961,4614l-356 0c1510,-7276 5324,-13754 12956,-15351 1774,-355 3371,-533 4792,-621l0 -9406zm-11891 50667c-3638,0 -5767,-5058 -5767,-12601 0,-2750 266,-4436 532,-5145 1065,-2574 2928,-3816 4791,-3816 3816,0 5324,4614 5413,9494 0,6921 -1243,12068 -4969,12068zm28039 18367c5058,-6921 9939,-18634 10293,-36203 0,-17569 -5235,-29370 -10293,-35848l-8341 0c5147,8164 9406,19700 9406,35848 0,16149 -4259,28040 -9406,36203l8341 0zm60870 -10648l0 -10204 -17657 0 0 -177 3461 -4082c6655,-7720 13398,-16415 13398,-27240 0,-8254 -4081,-16683 -16682,-16683 -5234,0 -10204,1864 -12866,3638l2129 8963c2042,-1331 4970,-2929 8608,-2929 4791,0 7364,3195 7364,7897 0,8252 -6122,16150 -13576,25644l-5678 7364 0 7809 31499 0zm7543 -57676l0 10204 19609 0 0 177 -17657 47295 11358 0 18101 -50045 0 -7631 -31411 0zm37800 0l0 10204 19609 0 0 177 -17657 47295 11357 0 18102 -50045 0 -7631 -31411 0zm82165 57676l0 -10204 -17657 0 0 -177 3461 -4082c6655,-7720 13397,-16415 13397,-27240 0,-8254 -4080,-16683 -16681,-16683 -5235,0 -10204,1864 -12866,3638l2129 8963c2042,-1331 4970,-2929 8608,-2929 4791,0 7364,3195 7364,7897 0,8252 -6122,16150 -13576,25644l-5678 7364 0 7809 31499 0zm7543 -57676l0 10204 19609 0 0 177 -17657 47295 11357 0 18102 -50045 0 -7631 -31411 0zm58918 27330c-4791,3017 -8696,8163 -8696,15350 0,9406 6921,15706 16859,15706 9494,0 17303,-6211 17303,-16859 0,-6833 -3638,-12157 -8962,-15085l0 -177c6123,-3727 7631,-8961 7631,-12777 0,-8608 -6655,-14198 -14907,-14198 -8874,0 -16327,5767 -16327,15173 0,4526 2129,9495 7099,12690l0 177zm8518 23248c-3905,0 -5945,-4171 -5945,-9140 0,-4525 2040,-8075 4969,-10115 3283,1686 6654,5235 6654,10648 0,4880 -1951,8607 -5678,8607zm267 -43479c3371,0 4702,3549 4702,7453 0,3372 -1508,7011 -3993,8253 -3371,-1775 -5679,-4615 -5679,-8696 0,-3549 1509,-7010 4970,-7010zm20674 48714c2485,1420 6655,2573 11269,2573 12599,0 19343,-8607 19343,-17391 0,-7720 -4259,-12777 -9849,-14641l0 -178c5147,-2396 8341,-7187 8341,-12954 0,-7366 -5147,-13932 -15262,-13932 -4792,0 -9494,1508 -11890,3017l1597 8785c2130,-1420 4614,-2308 7276,-2308 4082,0 6655,2485 6655,6656 0,5590 -5412,7365 -9672,7454l-1153 0 0 8518 1597 0c5767,88 10737,2750 10737,9139 0,4880 -3107,8341 -8785,8341 -3017,0 -6300,-888 -8607,-2219l-1597 9140z"/>
 </g>
</svg>
