<?xml version="1.0" encoding="UTF-8"?>
<!DOCTYPE svg PUBLIC "-//W3C//DTD SVG 1.1//EN" "http://www.w3.org/Graphics/SVG/1.1/DTD/svg11.dtd">
<!-- Creator: CorelDRAW X7 -->
<svg xmlns="http://www.w3.org/2000/svg" xml:space="preserve" width="57.2601mm" height="6.875mm" version="1.1" style="shape-rendering:geometricPrecision; text-rendering:geometricPrecision; image-rendering:optimizeQuality; fill-rule:evenodd; clip-rule:evenodd"
viewBox="0 0 600773 72133"
 xmlns:xlink="http://www.w3.org/1999/xlink">
 <defs>
  <style type="text/css">
   <![CDATA[
    .fil0 {fill:#FEFEFE;fill-rule:nonzero}
   ]]>
  </style>
 </defs>
 <g id="Слой_x0020_1">
  <metadata id="CorelCorpID_0Corel-Layer"/>
  <path class="fil0" d="M19188 14214l0 19899 -19188 0 0 7283 19188 0 0 20077 7462 0 0 -20077 19187 0 0 -7283 -19187 0 0 -19899 -7462 0zm32335 45393c2488,1422 6662,2576 11282,2576 12614,0 19365,-8616 19365,-17410 0,-7729 -4264,-12792 -9860,-14658l0 -178c5152,-2399 8350,-7196 8350,-12969 0,-7374 -5152,-13947 -15279,-13947 -4797,0 -9505,1509 -11903,3020l1599 8795c2132,-1422 4618,-2311 7283,-2311 4087,0 6663,2488 6663,6664 0,5596 -5418,7373 -9682,7462l-1156 0 0 8528 1599 0c5774,88 10750,2753 10750,9149 0,4886 -3110,8350 -8795,8350 -3021,0 -6308,-888 -8617,-2221l-1599 9150zm46193 -28515c-4797,3021 -8706,8172 -8706,15368 0,9416 6929,15723 16878,15723 9505,0 17323,-6218 17323,-16877 0,-6841 -3642,-12171 -8972,-15103l0 -177c6129,-3731 7639,-8972 7639,-12792 0,-8617 -6662,-14213 -14924,-14213 -8883,0 -16345,5773 -16345,15190 0,4530 2132,9506 7107,12704l0 177zm8528 23274c-3909,0 -5952,-4175 -5952,-9150 0,-4530 2043,-8084 4974,-10127 3287,1689 6663,5241 6663,10660 0,4886 -1954,8617 -5685,8617zm267 -43528c3375,0 4707,3553 4707,7462 0,3375 -1509,7018 -3997,8262 -3375,-1777 -5686,-4620 -5686,-8706 0,-3553 1511,-7018 4976,-7018zm45748 -10838c-5064,6752 -9950,18833 -10304,36155 0,17145 5240,29315 10304,35978l8350 0c-5152,-8351 -9416,-19810 -9416,-35888 0,-16612 4264,-28161 9416,-36245l-8350 0zm29137 3021c-11904,0 -17234,13235 -17234,29847 0,14836 4264,29315 16879,29315 9327,0 16878,-9149 16878,-29848 0,-13768 -3021,-29314 -16523,-29314zm-89 9949c3731,0 4886,7196 4886,19632 0,13237 -1332,19632 -4886,19632 -3908,0 -5596,-6129 -5419,-19632 -88,-13413 1777,-19632 5419,-19632zm51078 -9239l-23895 0 -3287 28960c1244,-177 2576,-177 4175,-177 6663,0 12526,2575 12526,10393 0,6129 -3731,9771 -9417,9771 -3198,0 -6129,-977 -8261,-1954l-1777 9150c2310,1243 6751,2309 10838,2309 12614,0 20076,-9149 20076,-20342 0,-5863 -1777,-10216 -4975,-13325 -3375,-3110 -8439,-4264 -10927,-4353 -621,0 -1154,0 -1687,89l1333 -10394 15278 0 0 -10127zm24696 -710c-11904,0 -17234,13235 -17234,29847 0,14836 4264,29315 16879,29315 9327,0 16878,-9149 16878,-29848 0,-13768 -3021,-29314 -16523,-29314zm-89 9949c3731,0 4886,7196 4886,19632 0,13237 -1332,19632 -4886,19632 -3908,0 -5596,-6129 -5419,-19632 -88,-13413 1777,-19632 5419,-19632zm28515 59163c5064,-6929 9950,-18655 10304,-36244 0,-17589 -5240,-29404 -10304,-35889l-8350 0c5152,8173 9416,19722 9416,35889 0,16167 -4264,28071 -9416,36244l8350 0zm43084 -10660l11548 0 0 -57742 -10216 0 -13236 6841 1955 9150 9771 -5065 178 0 0 46816zm41218 -58452c-11904,0 -17234,13235 -17234,29847 0,14836 4264,29315 16879,29315 9327,0 16878,-9149 16878,-29848 0,-13768 -3020,-29314 -16523,-29314zm-89 9949c3731,0 4886,7196 4886,19632 0,13237 -1332,19632 -4886,19632 -3908,0 -5596,-6129 -5419,-19632 -88,-13413 1778,-19632 5419,-19632zm37932 -9949c-11904,0 -17234,13235 -17234,29847 0,14836 4264,29315 16878,29315 9328,0 16879,-9149 16879,-29848 0,-13768 -3021,-29314 -16523,-29314zm-89 9949c3731,0 4886,7196 4886,19632 0,13237 -1332,19632 -4886,19632 -3908,0 -5597,-6129 -5419,-19632 -88,-13413 1777,-19632 5419,-19632zm48680 48503l11548 0 0 -57742 -10216 0 -13236 6841 1955 9150 9771 -5065 178 0 0 46816zm53477 -58452c-1155,89 -3109,177 -5863,622 -4708,977 -10393,3642 -14213,7816 -5330,5686 -9417,14214 -9417,26828 0,14391 6663,23896 17589,23896 11282,0 16523,-10304 16523,-20520 0,-10837 -5330,-17856 -13058,-17856 -3909,0 -6929,1866 -8972,4620l-356 0c1511,-7285 5330,-13770 12970,-15369 1777,-354 3376,-533 4797,-621l0 -9416zm-11904 50723c-3642,0 -5774,-5063 -5774,-12614 0,-2753 267,-4442 533,-5152 1066,-2577 2932,-3820 4797,-3820 3820,0 5330,4620 5419,9505 0,6929 -1244,12081 -4975,12081zm64759 -50013l-23896 0 -3287 28960c1245,-177 2577,-177 4176,-177 6662,0 12525,2575 12525,10393 0,6129 -3731,9771 -9416,9771 -3198,0 -6130,-977 -8262,-1954l-1776 9150c2309,1243 6751,2309 10837,2309 12615,0 20077,-9149 20077,-20342 0,-5863 -1778,-10216 -4976,-13325 -3375,-3110 -8438,-4264 -10926,-4353 -621,0 -1154,0 -1687,89l1332 -10394 15279 0 0 -10127zm7551 55876c2488,1422 6662,2576 11282,2576 12613,0 19365,-8616 19365,-17410 0,-7729 -4264,-12792 -9860,-14658l0 -178c5152,-2399 8350,-7196 8350,-12969 0,-7374 -5152,-13947 -15279,-13947 -4797,0 -9505,1509 -11903,3020l1599 8795c2132,-1422 4618,-2311 7283,-2311 4087,0 6663,2488 6663,6664 0,5596 -5419,7373 -9682,7462l-1156 0 0 8528 1599 0c5774,88 10749,2753 10749,9149 0,4886 -3109,8350 -8794,8350 -3021,0 -6308,-888 -8617,-2221l-1599 9150z"/>
 </g>
</svg>
